<svg xmlns="http://www.w3.org/2000/svg" viewBox="0 0 1220.9 100.89"><defs><style>.a{fill:#2ba198;}.b{fill:#262626;}</style></defs><title>Artboard 3</title><path class="a" d="M81,43.61c-2.65,4.33-5.64,8.34-8.51,12.46Q66.23,65,60,74c-6.77,9.71-15.87,11.57-23.68,4.29C28,70.61,20.09,62.46,12,54.51c-.18,0-.35,0-.28-.34v0c-.24,0-.53,0-.72-.08C6.73,51.5,1.21,55.82.15,61.52a12.41,12.41,0,0,0,.48,5.54,14.23,14.23,0,0,0,2.6,3.46C10.61,77.72,18,84.9,25.33,92.18c4.61,4.58,9.8,7.74,15.91,8.48,11.93,1.44,22-3.64,30-15.12C87.71,62,104.07,38.46,120.54,15c2.93-4.16,2.38-10.49-.46-13.13-3.26-3-8-2.35-11,1.8-3.7,5.22-7.34,10.5-11,15.75-.37.53-.66,1.18-1.25,1.44-4.36,6.3-8.7,12.61-13.1,18.88C82.83,41,82.36,42.78,81,43.61Z"/><path class="b" d="M161.32,76.36a9.83,9.83,0,0,0,9.81,9.81h19a6,6,0,0,1,6,6v.13a5.58,5.58,0,0,1-1.77,4.19,5.8,5.8,0,0,1-4.25,1.77h-19a21.89,21.89,0,0,1-21.92-21.92V6a5.92,5.92,0,0,1,6-6h.2a5.92,5.92,0,0,1,6,6Z"/><path class="b" d="M269.6,47.7a5.9,5.9,0,0,1-2.94,7.92L242.58,66.48l-24,10.86a22.46,22.46,0,0,0,18.58,9,23.64,23.64,0,0,0,22.31-15.9,5.61,5.61,0,0,1,5.76-4.06A5.75,5.75,0,0,1,270.13,69a5.62,5.62,0,0,1,.72,5.43A34.4,34.4,0,0,1,258,91.54a34.87,34.87,0,0,1-20.87,6.74,34.41,34.41,0,0,1-25.26-10.47,34.41,34.41,0,0,1-10.47-25.26A34.42,34.42,0,0,1,211.89,37.3a35.64,35.64,0,0,1,44.75-4.65A34.94,34.94,0,0,1,269.6,47.7Zm-32.45-8.64a23.57,23.57,0,0,0-23.62,23.69,22.73,22.73,0,0,0,.26,3.47L255.21,47.5A22.51,22.51,0,0,0,237.15,39.06Z"/><path class="b" d="M349.23,47.7a5.9,5.9,0,0,1-2.94,7.92L322.21,66.48l-24,10.86a22.46,22.46,0,0,0,18.58,9,23.64,23.64,0,0,0,22.31-15.9,5.61,5.61,0,0,1,5.76-4.06A5.75,5.75,0,0,1,349.75,69a5.62,5.62,0,0,1,.72,5.43,34.4,34.4,0,0,1-12.82,17.14,34.87,34.87,0,0,1-20.87,6.74,34.41,34.41,0,0,1-25.26-10.47,34.41,34.41,0,0,1-10.47-25.26A34.42,34.42,0,0,1,291.52,37.3a35.64,35.64,0,0,1,44.75-4.65A34.94,34.94,0,0,1,349.23,47.7Zm-32.45-8.64a23.57,23.57,0,0,0-23.62,23.69,22.73,22.73,0,0,0,.26,3.47L334.84,47.5A22.51,22.51,0,0,0,316.78,39.06Z"/><path class="b" d="M368.79,0a5.92,5.92,0,0,1,6,6V26.83h11.78a5.72,5.72,0,0,1,4.19,1.77,5.8,5.8,0,0,1,1.77,4.25V33a5.58,5.58,0,0,1-1.77,4.19,5.72,5.72,0,0,1-4.19,1.77H374.75V79.69a6.24,6.24,0,0,0,1.9,4.58,6.31,6.31,0,0,0,4.65,1.9h5.23a5.72,5.72,0,0,1,4.19,1.77,5.8,5.8,0,0,1,1.77,4.25v.13a5.58,5.58,0,0,1-1.77,4.19,5.72,5.72,0,0,1-4.19,1.77h-5.23a18.54,18.54,0,0,1-18.65-18.58V6a5.92,5.92,0,0,1,6-6Z"/><path class="b" d="M446.2,28.53a5.46,5.46,0,0,1,4.19,5.69v.33A5.61,5.61,0,0,1,448,39.32a5.68,5.68,0,0,1-5.37.92,22.23,22.23,0,0,0-7.2-1.18,23.57,23.57,0,0,0-23.62,23.69A23.57,23.57,0,0,0,435.4,86.37a23.4,23.4,0,0,0,7.2-1.11,5.78,5.78,0,0,1,5.37.85,5.67,5.67,0,0,1,2.42,4.84,5.52,5.52,0,0,1-4.19,5.69,36,36,0,0,1-10.8,1.64,34.41,34.41,0,0,1-25.26-10.47,34.41,34.41,0,0,1-10.47-25.26A34.42,34.42,0,0,1,410.15,37.3a35.54,35.54,0,0,1,36.05-8.77Z"/><path class="b" d="M495.27,26.83A34.42,34.42,0,0,1,520.53,37.3,34.42,34.42,0,0,1,531,62.55a34.42,34.42,0,0,1-10.47,25.26,35.7,35.7,0,0,1-50.51,0,34.41,34.41,0,0,1-10.47-25.26A34.42,34.42,0,0,1,470,37.3,34.42,34.42,0,0,1,495.27,26.83Zm0,12.24a23.57,23.57,0,0,0-23.62,23.69,23.57,23.57,0,0,0,23.62,23.62A22.6,22.6,0,0,0,512,79.43a22.75,22.75,0,0,0,6.94-16.68A22.83,22.83,0,0,0,512,46,22.61,22.61,0,0,0,495.27,39.06Z"/><path class="b" d="M605.65,0a5.92,5.92,0,0,1,6,6V62.75a34.36,34.36,0,0,1-10.53,25.12,35.7,35.7,0,0,1-50.45-.07,34.41,34.41,0,0,1-10.47-25.26A34.42,34.42,0,0,1,550.62,37.3a35.65,35.65,0,0,1,48.88-1.5V6a5.92,5.92,0,0,1,6-6ZM559.13,46a22.93,22.93,0,0,0-6.87,16.75,23.57,23.57,0,0,0,23.62,23.62,22.61,22.61,0,0,0,16.68-6.94,22.75,22.75,0,0,0,6.94-16.68A22.83,22.83,0,0,0,592.56,46a23.62,23.62,0,0,0-33.43,0Z"/><path class="b" d="M690.9,47.7A5.9,5.9,0,0,1,688,55.62L663.88,66.48l-24,10.86a22.46,22.46,0,0,0,18.58,9,23.64,23.64,0,0,0,22.31-15.9,5.61,5.61,0,0,1,5.76-4.06A5.75,5.75,0,0,1,691.43,69a5.62,5.62,0,0,1,.72,5.43,34.4,34.4,0,0,1-12.82,17.14,34.87,34.87,0,0,1-20.87,6.74A34.41,34.41,0,0,1,633.2,87.81a34.41,34.41,0,0,1-10.47-25.26A34.42,34.42,0,0,1,633.2,37.3a35.64,35.64,0,0,1,44.75-4.65A34.94,34.94,0,0,1,690.9,47.7Zm-32.45-8.64a23.57,23.57,0,0,0-23.62,23.69,22.73,22.73,0,0,0,.26,3.47L676.51,47.5A22.51,22.51,0,0,0,658.45,39.06Z"/><path class="b" d="M730.49,11.91a14.88,14.88,0,0,0-10.93,4.51A14.88,14.88,0,0,0,715,27.35q0,7.79,7.07,11.84,2.88,1.64,16.23,5.5,10.73,3.21,15.57,7.59Q761,58.69,761,70.53a27.81,27.81,0,0,1-27.74,27.74H708.31a6,6,0,0,1-6-6v-.39a6,6,0,0,1,6-6h25.58a15.41,15.41,0,0,0,15.44-15.44q0-7.66-7.07-11.91-3.08-1.83-16.23-6-10.8-3.53-15.57-7.85-7.07-6.35-7.07-17.47a26.74,26.74,0,0,1,8.11-19.63A26.74,26.74,0,0,1,731.14-.39h17.6A5.8,5.8,0,0,1,753,1.37a5.69,5.69,0,0,1,1.7,4.19V6a5.83,5.83,0,0,1-1.7,4.19,5.8,5.8,0,0,1-4.25,1.77Z"/><path class="b" d="M805.86,26.83A34.42,34.42,0,0,1,831.12,37.3a34.42,34.42,0,0,1,10.47,25.26,34.42,34.42,0,0,1-10.47,25.26,35.7,35.7,0,0,1-50.51,0,34.41,34.41,0,0,1-10.47-25.26A34.42,34.42,0,0,1,780.61,37.3,34.42,34.42,0,0,1,805.86,26.83Zm0,12.24a23.57,23.57,0,0,0-23.62,23.69,23.57,23.57,0,0,0,23.62,23.62,22.61,22.61,0,0,0,16.68-6.94,22.75,22.75,0,0,0,6.94-16.68A22.83,22.83,0,0,0,822.55,46,22.61,22.61,0,0,0,805.86,39.06Z"/><path class="b" d="M861.48,0a5.92,5.92,0,0,1,6,6V92.32a5.58,5.58,0,0,1-1.77,4.19,5.72,5.72,0,0,1-4.19,1.77h-.2a5.72,5.72,0,0,1-4.19-1.77,5.58,5.58,0,0,1-1.77-4.19V6a5.92,5.92,0,0,1,6-6Z"/><path class="b" d="M895.24,68.64a17.57,17.57,0,1,0,35.14,0V32.85a6,6,0,0,1,6-6h.13a5.59,5.59,0,0,1,4.19,1.77,5.8,5.8,0,0,1,1.77,4.25V68.64a29.67,29.67,0,0,1-59.34,0V32.85a5.8,5.8,0,0,1,1.77-4.25,5.72,5.72,0,0,1,4.19-1.77h.2a5.72,5.72,0,0,1,4.19,1.77,5.8,5.8,0,0,1,1.77,4.25Z"/><path class="b" d="M961.72,0a5.92,5.92,0,0,1,6,6V26.83h11.78a5.72,5.72,0,0,1,4.19,1.77,5.8,5.8,0,0,1,1.77,4.25V33a5.58,5.58,0,0,1-1.77,4.19,5.72,5.72,0,0,1-4.19,1.77H967.67V79.69a6.24,6.24,0,0,0,1.9,4.58,6.31,6.31,0,0,0,4.65,1.9h5.23a5.72,5.72,0,0,1,4.19,1.77,5.8,5.8,0,0,1,1.77,4.25v.13a5.58,5.58,0,0,1-1.77,4.19,5.72,5.72,0,0,1-4.19,1.77h-5.23a18.54,18.54,0,0,1-18.65-18.58V6a5.92,5.92,0,0,1,6-6Z"/><path class="b" d="M1003.07,14.39A6.94,6.94,0,0,1,998,12.3a6.94,6.94,0,0,1-2.09-5.1,6.87,6.87,0,0,1,2.09-5,6.94,6.94,0,0,1,5.1-2.09,6.87,6.87,0,0,1,5,2.09,6.77,6.77,0,0,1,2.16,5,6.84,6.84,0,0,1-2.16,5.1A6.87,6.87,0,0,1,1003.07,14.39Zm.07,12.43a5.59,5.59,0,0,1,4.19,1.77,5.8,5.8,0,0,1,1.77,4.25V92.32a6,6,0,0,1-6,6H1003a5.8,5.8,0,0,1-4.25-1.77A5.58,5.58,0,0,1,997,92.32V32.85a6,6,0,0,1,6-6Z"/><path class="b" d="M1058.42,26.83a34.42,34.42,0,0,1,25.26,10.47,34.42,34.42,0,0,1,10.47,25.26,34.42,34.42,0,0,1-10.47,25.26,35.7,35.7,0,0,1-50.51,0,34.41,34.41,0,0,1-10.47-25.26,34.42,34.42,0,0,1,10.47-25.26A34.42,34.42,0,0,1,1058.42,26.83Zm0,12.24a23.57,23.57,0,0,0-23.62,23.69,23.57,23.57,0,0,0,23.62,23.62,22.61,22.61,0,0,0,16.68-6.94A22.75,22.75,0,0,0,1082,62.75,22.83,22.83,0,0,0,1075.11,46,22.61,22.61,0,0,0,1058.42,39.06Z"/><path class="b" d="M1117.37,92.32a5.58,5.58,0,0,1-1.77,4.19,5.72,5.72,0,0,1-4.19,1.77h-.2a5.72,5.72,0,0,1-4.19-1.77,5.58,5.58,0,0,1-1.77-4.19V56.53a28.62,28.62,0,0,1,8.7-21,29.62,29.62,0,0,1,41.94,0,28.62,28.62,0,0,1,8.7,21V92.32a6,6,0,0,1-6,6h-.13a5.8,5.8,0,0,1-4.25-1.77,5.58,5.58,0,0,1-1.77-4.19V56.53a17.57,17.57,0,1,0-35.14,0Z"/><path class="b" d="M1196,38.93a8.46,8.46,0,0,0-6.22,2.55,8.6,8.6,0,0,0-2.55,6.22,8.2,8.2,0,0,0,4.84,7.66q1.5.79,11.32,3.4,7.33,2.09,10.73,5.37Q1219,68.7,1219,77.4a20.78,20.78,0,0,1-20.87,20.87H1181a5.72,5.72,0,0,1-4.19-1.77,5.58,5.58,0,0,1-1.77-4.19v-.13a5.8,5.8,0,0,1,1.77-4.25,5.72,5.72,0,0,1,4.19-1.77h17.73a8.71,8.71,0,0,0,8.77-8.77q0-4.84-4.84-7.2-1.11-.52-11.32-3.4-7.26-2.16-10.73-5.5-4.84-4.78-4.84-13.61a20.89,20.89,0,0,1,20.87-20.87h12a6,6,0,0,1,6,6V33a5.58,5.58,0,0,1-1.77,4.19,5.8,5.8,0,0,1-4.25,1.77Z"/></svg>